<svg width="47" height="35" viewBox="0 0 47 35" fill="none" xmlns="http://www.w3.org/2000/svg">
<g clip-path="url(#clip0_1_28)">
<path d="M8.65 -0.100001V35H0.1V-0.100001H8.65Z" fill="#0066C6"/>
<path d="M27.9961 -0.100001C31.6961 -0.100001 34.9294 0.633332 37.6961 2.1C40.4628 3.56667 42.5961 5.63333 44.0961 8.3C45.6294 10.9333 46.3961 13.9833 46.3961 17.45C46.3961 20.8833 45.6294 23.9333 44.0961 26.6C42.5961 29.2667 40.4461 31.3333 37.6461 32.8C34.8794 34.2667 31.6628 35 27.9961 35H14.8461V-0.100001H27.9961ZM27.4461 27.6C30.6794 27.6 33.1961 26.7167 34.9961 24.95C36.7961 23.1833 37.6961 20.6833 37.6961 17.45C37.6961 14.2167 36.7961 11.7 34.9961 9.9C33.1961 8.1 30.6794 7.2 27.4461 7.2H23.3961V27.6H27.4461Z" fill="#15B012"/>
</g>
<defs>
<clipPath id="clip0_1_28">
<rect width="47" height="35" fill="white"/>
</clipPath>
</defs>
</svg>
